<svg version="1.1" xmlns="http://www.w3.org/2000/svg" xmlns:xlink="http://www.w3.org/1999/xlink" x="0px" y="0px"
	 viewBox="0 0 489.6 489.6" enable-background="new 0 0 489.6 489.6" xml:space="preserve">
<path fill="#0032A0" d="M462.6,0H27C12.1,0,0,12.1,0,27v435.6c0,14.9,12.1,27,27,27h234.5V300h-63.8v-73.9h63.8v-54.5
	c0-63.2,38.6-97.7,95-97.7c27,0,50.2,2,57,2.9v66.1l-39.1,0c-30.7,0-36.6,14.6-36.6,36v47.2H411l-9.5,73.9h-63.6v189.6h124.8
	c14.9,0,27-12.1,27-27V27C489.6,12.1,477.5,0,462.6,0z"/>
</svg>
