<svg version="1.1" xmlns="http://www.w3.org/2000/svg" xmlns:xlink="http://www.w3.org/1999/xlink" x="0px" y="0px"
	 viewBox="0 0 498.7 498.7" enable-background="new 0 0 498.7 498.7" xml:space="preserve">
<path fill="#0032A0" fill-rule="evenodd" clip-rule="evenodd" d="M473.8,0H24.9C11.1,0,0,11.1,0,24.9v448.9
	c0,13.8,11.1,24.9,24.9,24.9h448.9c13.8,0,24.9-11.1,24.9-24.9V24.9C498.7,11.1,487.6,0,473.8,0z M177.9,374.4
	c-69.1,0-125-55.9-125-125c0-69.1,55.9-125,125-125c33.8,0,62,12.3,83.7,32.7l-33.9,32.7c-9.3-8.9-25.5-19.3-49.8-19.3
	c-42.7,0-77.5,35.4-77.5,78.9s34.8,78.9,77.5,78.9c49.5,0,68-35.5,70.9-53.9h-70.9v-42.9h118c1.1,6.2,2,12.5,2,20.7
	C297.9,323.6,250.1,374.4,177.9,374.4z M445.8,267.2h-35.7v35.7h-35.7v-35.7h-35.7v-35.7h35.7v-35.7h35.7v35.7h35.7V267.2z"/>
</svg>
