<svg version="1.1" xmlns="http://www.w3.org/2000/svg" xmlns:xlink="http://www.w3.org/1999/xlink" x="0px" y="0px"
	 viewBox="0 0 493.9 493.9" enable-background="new 0 0 493.9 493.9" xml:space="preserve">
<path fill="#0032A0" fill-rule="evenodd" clip-rule="evenodd" d="M469.2,0H24.7C11,0,0,11,0,24.7v444.6c0,13.6,11,24.7,24.7,24.7
	h444.6c13.6,0,24.7-11,24.7-24.7V24.7C493.9,11,482.9,0,469.2,0z M370,181.1c0.1,2.7,0.2,5.5,0.2,8.2c0,83.9-63.9,180.7-180.7,180.7
	c-35.9,0-69.3-10.5-97.4-28.5c5,0.6,10,0.9,15.1,0.9c29.8,0,57.1-10.2,78.9-27.2c-27.8-0.5-51.2-18.9-59.3-44.1
	c3.9,0.7,7.9,1.1,11.9,1.1c5.8,0,11.4-0.8,16.7-2.2c-29.1-5.8-50.9-31.5-50.9-62.3c0-0.3,0-0.5,0-0.8c8.6,4.8,18.4,7.6,28.8,7.9
	c-17-11.4-28.3-30.8-28.3-52.9c0-11.6,3.1-22.5,8.6-31.9c31.3,38.4,78.1,63.7,130.9,66.4c-1.1-4.7-1.6-9.5-1.6-14.5
	c0-35.1,28.4-63.5,63.5-63.5c18.3,0,34.8,7.7,46.4,20.1c14.5-2.8,28.1-8.1,40.3-15.4c-4.7,14.8-14.8,27.3-27.9,35.1
	c12.8-1.5,25.1-5,36.5-10C393.2,161,382.4,172.1,370,181.1z"/>
</svg>
